<?xml version="1.0" encoding="UTF-8"?>
<svg width="353px" height="316px" viewBox="0 0 353 316" version="1.1" xmlns="http://www.w3.org/2000/svg" xmlns:xlink="http://www.w3.org/1999/xlink">
    <!-- Generator: Sketch 52.6 (67491) - http://www.bohemiancoding.com/sketch -->
    <title>paper big</title>
    <desc>Created with Sketch.</desc>
    <defs>
        <filter x="-11.8%" y="-10.1%" width="123.6%" height="120.3%" filterUnits="objectBoundingBox" id="filter-1">
            <feOffset dx="2" dy="5" in="SourceAlpha" result="shadowOffsetOuter1"></feOffset>
            <feGaussianBlur stdDeviation="5" in="shadowOffsetOuter1" result="shadowBlurOuter1"></feGaussianBlur>
            <feColorMatrix values="0 0 0 0 0.290221632   0 0 0 0 0.290175289   0 0 0 0 0.290237457  0 0 0 1 0" type="matrix" in="shadowBlurOuter1" result="shadowMatrixOuter1"></feColorMatrix>
            <feMerge>
                <feMergeNode in="shadowMatrixOuter1"></feMergeNode>
                <feMergeNode in="SourceGraphic"></feMergeNode>
            </feMerge>
        </filter>
    </defs>
    <g id="Page-2" stroke="none" stroke-width="1" fill="none" fill-rule="evenodd">
        <g id="Desktop-Copy-2" transform="translate(-1029.000000, -74.000000)">
            <g id="paper-big" filter="url(#filter-1)" transform="translate(1181.999309, 220.471064) rotate(50.966785) translate(-1181.999309, -220.471064) translate(1035.999309, 50.471064)">
                <g id="g3915-6-1-6-3-8-9-4" transform="translate(0.710561, 0.253458)">
                    <path d="M213.510523,304.219742 C221.976325,318.138648 212.411545,327.050991 199.517461,333.635224 C181.276052,342.947665 136.144339,338.410724 120.692909,329.060341 C106.511986,320.479027 100.219425,307.818351 106.971758,296.834405" id="path3894-6-1-0-5-5-2-9" stroke="#9013FE" stroke-width="10" fill="#FFFFFF" stroke-linecap="round" stroke-linejoin="round"></path>
                    <path d="M2.08126725,212.658461 C-7.11553624,230.873703 24.3815735,242.171638 58.9099075,248.551392 C72.3173505,251.028999 98.6788248,296.151898 130.022374,306.934773 C150.413854,313.950684 196.639343,315.673763 212.922178,303.683552 C240.801536,283.152696 254.901363,256.685124 261.273204,223.963893 C263.53222,212.365146 264.106572,199.117388 263.447967,188.289073 C261.284903,152.730125 292.86747,66.3603453 290.439129,57.247385 C283.696336,31.926033 254.382007,46.7637318 248.271401,63.042328 C245.311505,70.9270494 216.796098,126.221884 216.628,115.636673 C216.214205,89.6337236 218.8469,58.2847766 223.02392,28.823855 C229.274457,-15.2618797 167.730881,-4.14956637 162.301755,37.1900115 C159.758017,56.556245 155.358607,72.426337 150.696146,115.778218 C143.549917,92.4312274 131.543824,58.896624 127.514459,35.7132166 C120.86889,-2.51532246 66.0517526,20.4008987 75.1586007,66.971284 C81.3609799,98.6860217 98.7855219,154.606563 96.0602823,209.713732 C74.6508979,191.859282 29.8203994,157.712376 2.07960898,212.653462 L2.08126725,212.658461 Z" id="path3112-2-8-6-8-2-9-8" stroke="#9013FE" stroke-width="10" fill="#FFFFFF" stroke-linecap="round" stroke-linejoin="round"></path>
                    <path d="M145.601013,114.826481 C152.499638,143.592173 162.619166,156.778815 166.385026,163.492552 C161.568323,145.573804 159.870302,141.157506 156.176452,121.653817 C155.550171,118.34716 155.366126,114.387759 155.912014,109.555914 L145.601013,114.826481 Z" id="path3882-6-1-33-9-9-7-9" fill="#9013FE"></path>
                    <path d="M212.020353,115.803437 C212.308255,133.145553 216.816838,153.988809 223.31339,167.000507 C223.015628,157.535615 222.362543,141.274741 221.628634,126.897575 C221.429596,122.997928 222.204848,119.467252 225.401536,114.921677 C221.02507,116.151734 216.516623,115.795395 212.020444,115.804119 L212.020353,115.803437 Z" id="path3884-6-1-2-9-6-6-0" fill="#9013FE"></path>
                    <path d="M191.182958,286.952602 C200.353183,264.963581 200.214843,258.632221 202.984151,247.40858" id="path3886-8-5-4-3-7-0-8" stroke="#9013FE" stroke-width="10" stroke-linecap="round" stroke-linejoin="round"></path>
                    <path d="M169.870798,288.542997 C173.714801,262.471887 173.106012,249.573788 174.085753,231.974937" id="path3888-4-4-9-8-4-7-4" stroke="#9013FE" stroke-width="10" stroke-linecap="round" stroke-linejoin="round"></path>
                    <path d="M144.385707,289.678993 C144.606279,271.547133 143.025313,262.973998 142.002798,251.439094" id="path3890-1-8-5-1-8-9-7" stroke="#9013FE" stroke-width="10" stroke-linecap="round" stroke-linejoin="round"></path>
                </g>
            </g>
        </g>
    </g>
</svg>