<?xml version="1.0" encoding="UTF-8"?>
<svg width="141px" height="128px" viewBox="0 0 141 128" version="1.1" xmlns="http://www.w3.org/2000/svg" xmlns:xlink="http://www.w3.org/1999/xlink">
    <!-- Generator: Sketch 52.6 (67491) - http://www.bohemiancoding.com/sketch -->
    <title>paper</title>
    <desc>Created with Sketch.</desc>
    <defs>
        <filter x="-30.7%" y="-26.4%" width="161.3%" height="152.8%" filterUnits="objectBoundingBox" id="filter-1">
            <feOffset dx="2" dy="5" in="SourceAlpha" result="shadowOffsetOuter1"></feOffset>
            <feGaussianBlur stdDeviation="5" in="shadowOffsetOuter1" result="shadowBlurOuter1"></feGaussianBlur>
            <feColorMatrix values="0 0 0 0 0.290221632   0 0 0 0 0.290175289   0 0 0 0 0.290237457  0 0 0 1 0" type="matrix" in="shadowBlurOuter1" result="shadowMatrixOuter1"></feColorMatrix>
            <feMerge>
                <feMergeNode in="shadowMatrixOuter1"></feMergeNode>
                <feMergeNode in="SourceGraphic"></feMergeNode>
            </feMerge>
        </filter>
    </defs>
    <g id="Page-2" stroke="none" stroke-width="1" fill="none" fill-rule="evenodd">
        <g id="Desktop-Copy-2" transform="translate(-157.000000, -514.000000)">
            <g id="paper" filter="url(#filter-1)" transform="translate(218.149885, 570.900298) rotate(50.966785) translate(-218.149885, -570.900298) translate(165.149885, 509.400298)">
                <g id="g3915-6-1-6-3-8-9-4" transform="translate(0.234022, 0.136288)">
                    <path d="M77.0398794,109.483211 C80.0945504,114.492375 76.643341,117.699767 71.9908366,120.069314 C65.4088846,123.420694 49.124246,121.78793 43.5489879,118.422895 C38.43216,115.334635 36.161648,110.778285 38.5980571,106.825361" id="path3894-6-1-0-5-5-2-9" stroke="#9013FE" stroke-width="5" fill="#FFFFFF" stroke-linecap="round" stroke-linejoin="round"></path>
                    <path d="M0.750972717,76.5319534 C-2.56746153,83.0872913 8.79747497,87.1532149 21.2561522,89.4491735 C26.0938893,90.3408198 35.6057615,106.579739 46.9152897,110.460302 C54.2730402,112.985202 70.9523402,113.605307 76.8275901,109.290246 C86.8871523,101.90156 91.9747187,92.3763572 94.2738365,80.6005752 C95.0889454,76.4263949 95.2961857,71.6587649 95.0585446,67.7618494 C94.2780577,54.9648237 105.673829,23.8818942 104.797624,20.6023037 C102.364657,11.4896048 91.7873222,16.8294256 89.5824642,22.6877995 C88.5144605,25.5253688 78.2253963,45.4249849 78.1647422,41.6155579 C78.0154348,32.2575642 78.9653762,20.9756423 80.4725483,10.3731868 C82.7278967,-5.49247589 60.5214521,-1.49335427 58.562489,13.3840159 C57.6446452,20.3535749 56.0572294,26.0649354 54.3748981,41.6664974 C51.7963617,33.2643355 47.4642666,21.1958352 46.0103717,12.852544 C43.6124862,-0.905219291 23.8331066,7.34191634 27.1190827,24.10176 C29.3570546,35.5153234 35.6442605,55.6401201 34.6609266,75.4721984 C26.935891,69.0467032 10.7599379,56.7578464 0.750374373,76.5301546 L0.750972717,76.5319534 Z" id="path3112-2-8-6-8-2-9-8" stroke="#9013FE" stroke-width="5" fill="#FFFFFF" stroke-linecap="round" stroke-linejoin="round"></path>
                    <path d="M52.5364482,41.3239842 C55.0256427,51.6762392 58.6770187,56.4218744 60.0358342,58.8380274 C58.2978487,52.3893927 57.6851604,50.8000464 56.3523279,43.7810197 C56.1263504,42.5910132 56.0599424,41.1660962 56.2569124,39.4272019 L52.5364482,41.3239842 Z" id="path3882-6-1-33-9-9-7-9" fill="#9013FE"></path>
                    <path d="M76.5021892,41.6755733 C76.6060716,47.9166887 78.2328797,55.4178013 80.5769963,60.1004776 C80.4695566,56.6942333 80.2339072,50.8422371 79.9690948,45.6681538 C79.897277,44.2647409 80.1770071,42.9941142 81.3304511,41.3582437 C79.7513138,41.8009189 78.1245548,41.6726789 76.5022219,41.6758186 L76.5021892,41.6755733 Z" id="path3884-6-1-2-9-6-6-0" fill="#9013FE"></path>
                    <path d="M68.9835414,103.269078 C72.2923857,95.3556251 72.2424691,93.0770824 73.2417041,89.037896" id="path3886-8-5-4-3-7-0-8" stroke="#9013FE" stroke-width="5" stroke-linecap="round" stroke-linejoin="round"></path>
                    <path d="M61.2935868,103.841432 C62.6805982,94.4589094 62.4609321,89.8171156 62.814447,83.4836058" id="path3888-4-4-9-8-4-7-4" stroke="#9013FE" stroke-width="5" stroke-linecap="round" stroke-linejoin="round"></path>
                    <path d="M52.0979355,104.250257 C52.1775235,97.7249268 51.6070718,94.6396098 51.2381228,90.4884054" id="path3890-1-8-5-1-8-9-7" stroke="#9013FE" stroke-width="5" stroke-linecap="round" stroke-linejoin="round"></path>
                </g>
            </g>
        </g>
    </g>
</svg>