<?xml version="1.0" encoding="UTF-8"?>
<svg width="304px" height="512px" viewBox="0 0 304 512" version="1.1" xmlns="http://www.w3.org/2000/svg" xmlns:xlink="http://www.w3.org/1999/xlink">
    <!-- Generator: Sketch 52.6 (67491) - http://www.bohemiancoding.com/sketch -->
    <title>vip-person-vip-svgrepo-com</title>
    <desc>Created with Sketch.</desc>
    <g id="Page-2" stroke="none" stroke-width="1" fill="none" fill-rule="evenodd">
        <g id="Desktop-Copy" transform="translate(-830.000000, -378.000000)" fill="#9013FE">
            <g id="vip-person-vip-svgrepo-com" transform="translate(830.000000, 378.000000)">
                <path d="M8.536,410.703 C4.34,410.703 0.939,414.104 0.939,418.3 L0.939,504.402 C0.939,508.599 4.34,511.999 8.536,511.999 C12.732,511.999 16.133,508.598 16.133,504.402 L16.133,418.3 C16.133,414.104 12.732,410.703 8.536,410.703 Z" id="Path"></path>
                <path d="M197.087,217.855 C194.119,214.889 189.31,214.889 186.343,217.855 C169.461,234.739 141.989,234.739 125.105,217.855 C122.138,214.889 117.328,214.889 114.362,217.855 C111.395,220.823 111.395,225.632 114.362,228.599 C125.766,240.003 140.745,245.705 155.725,245.705 C170.704,245.705 185.683,240.003 197.088,228.599 C200.054,225.632 200.054,220.822 197.087,217.855 Z" id="Path"></path>
                <path d="M264.963,338.611 L241.112,338.611 C227.211,338.611 215.822,327.657 215.122,313.926 C215.121,313.917 215.122,313.908 215.121,313.899 C215.1,313.464 215.088,313.028 215.088,312.588 L215.088,284.441 C240.229,269.155 258.361,243.451 263.468,213.37 C283.751,210.71 299.465,193.326 299.465,172.328 C299.465,151.838 284.503,134.787 264.932,131.502 L264.932,103.415 C264.931,46.391 218.541,0 161.518,0 L149.93,0 C145.734,0 142.333,3.401 142.333,7.597 C142.333,11.793 145.734,15.194 149.93,15.194 L161.518,15.194 C210.162,15.194 249.738,54.769 249.738,103.414 L249.738,120.448 C230.58,120.137 215.088,104.465 215.088,85.234 C215.088,85.23 215.087,85.226 215.087,85.226 C215.091,83.272 214.351,81.32 212.863,79.832 C209.895,76.866 205.086,76.866 202.119,79.832 C176.539,105.415 134.912,105.416 109.329,79.832 C106.362,76.866 101.552,76.866 98.586,79.832 C95.619,82.8 95.619,87.609 98.586,90.576 C113.848,105.837 134.141,114.244 155.725,114.244 C172.529,114.244 188.538,109.128 202.012,99.67 C206.157,113.515 216.099,124.872 229.012,130.92 L228.022,130.92 L171.506,130.92 L142.192,130.92 L82.617,130.92 C82.203,130.92 81.8,130.963 81.403,131.025 C81.007,130.961 80.604,130.92 80.189,130.92 L61.709,130.92 L61.709,103.414 C61.709,72.817 77.34,44.805 103.523,28.483 C107.084,26.264 108.17,21.579 105.951,18.017 C103.732,14.457 99.046,13.369 95.484,15.59 C64.821,34.704 46.515,67.536 46.515,103.414 L46.515,131.433 C25.725,133.619 9.468,151.249 9.468,172.61 C9.468,194.498 26.542,212.463 48.07,213.911 C52.765,240.704 67.808,263.977 88.913,279.451 L88.913,312.587 C88.913,326.936 77.239,338.61 62.889,338.61 L39.038,338.61 C18.03,338.61 0.94,355.702 0.94,376.709 C0.94,380.906 4.342,384.306 8.537,384.306 C12.733,384.306 16.134,380.906 16.134,376.709 C16.134,364.078 26.409,353.804 39.038,353.804 L62.889,353.804 C79.15,353.804 93.237,344.337 99.94,330.629 L139.663,379.044 L81.794,379.044 C77.598,379.044 74.197,382.444 74.197,386.641 L74.197,472.582 C74.197,476.779 77.598,480.179 81.794,480.179 L224.281,480.179 C228.478,480.179 231.878,476.778 231.878,472.582 L231.878,386.641 C231.878,382.444 228.478,379.044 224.281,379.044 L170.523,379.044 L204.558,331.6 C211.442,344.781 225.238,353.804 241.111,353.804 L264.962,353.804 C277.592,353.804 287.866,364.079 287.866,376.709 L287.866,504.402 C287.866,508.599 291.266,511.999 295.463,511.999 C299.66,511.999 303.06,508.598 303.06,504.402 L303.06,376.709 C303.061,355.702 285.97,338.611 264.963,338.611 Z M264.931,196.011 L264.931,147.036 C276.06,150.065 284.269,160.253 284.269,172.328 C284.269,184.411 276.05,194.604 264.91,197.625 C264.919,197.088 264.931,196.551 264.931,196.011 Z M24.663,172.609 C24.663,159.64 34.131,148.848 46.515,146.765 L46.515,196.01 C46.515,196.828 46.527,197.644 46.546,198.457 C34.146,196.388 24.663,185.588 24.663,172.609 Z M223.483,146.115 L223.483,167.219 C223.483,170.821 220.551,173.752 216.95,173.752 L185.635,173.752 C182.033,173.752 179.102,170.82 179.102,167.219 L179.102,146.115 L223.483,146.115 Z M90.211,146.115 L90.212,146.115 L90.213,146.115 L134.594,146.115 L134.594,167.219 C134.594,170.821 131.663,173.752 128.06,173.752 L96.745,173.752 C93.143,173.752 90.211,170.82 90.211,167.219 L90.211,146.115 Z M216.684,394.239 L216.684,464.986 L89.391,464.986 L89.391,394.239 L216.684,394.239 Z M199.894,312.039 L155.321,374.173 L104.109,311.756 L104.109,288.702 C117.928,295.561 133.485,299.426 149.93,299.426 L161.518,299.426 C175.071,299.426 188.022,296.8 199.894,292.04 L199.894,312.039 Z M161.518,284.231 L149.93,284.231 C101.285,284.231 61.71,244.655 61.71,196.011 L61.71,146.115 L75.019,146.115 L75.019,167.219 C75.019,179.199 84.766,188.946 96.747,188.946 L128.062,188.946 C140.043,188.946 149.79,179.199 149.79,167.219 L149.79,146.115 L163.91,146.115 L163.91,167.219 C163.91,179.199 173.657,188.946 185.637,188.946 L216.951,188.946 C228.931,188.946 238.678,179.199 238.678,167.219 L238.678,146.115 L249.739,146.115 L249.739,196.011 C249.738,244.655 210.163,284.231 161.518,284.231 Z" id="Shape" fill-rule="nonzero"></path>
            </g>
        </g>
    </g>
</svg>