<?xml version="1.0" encoding="UTF-8"?>
<svg width="80px" height="134px" viewBox="0 0 80 134" version="1.1" xmlns="http://www.w3.org/2000/svg" xmlns:xlink="http://www.w3.org/1999/xlink">
    <!-- Generator: Sketch 52.6 (67491) - http://www.bohemiancoding.com/sketch -->
    <title>vip-person-vip-svgrepo-com</title>
    <desc>Created with Sketch.</desc>
    <g id="Page-2" stroke="none" stroke-width="1" fill="none" fill-rule="evenodd">
        <g id="Desktop-Copy" transform="translate(-830.000000, -378.000000)" fill="#9013FE">
            <g id="vip-person-vip-svgrepo-com" transform="translate(830.000000, 378.000000)">
                <path d="M2,107 C0.895353429,107 0,107.906521 0,109.024947 L0,131.975053 C0,133.093745 0.895353429,134 2,134 C3.10464657,134 4,133.093479 4,131.975053 L4,109.024947 C4,107.906521 3.10464657,107 2,107 Z" id="Path"></path>
                <path d="M51.4128677,56.5917305 C50.6298048,55.8027565 49.3610212,55.8027565 48.5782221,56.5917305 C44.124156,61.0829773 36.8760749,61.0829773 32.4214811,56.5917305 C31.638682,55.8027565 30.3696346,55.8027565 29.5870993,56.5917305 C28.8043002,57.3812366 28.8043002,58.6604599 29.5870993,59.4496999 C32.5958761,62.4832333 36.5478639,64 40.5001154,64 C44.4521032,64 48.4040909,62.4832333 51.4131315,59.4496999 C52.1956668,58.6604599 52.1956668,57.3809706 51.4128677,56.5917305 Z" id="Path"></path>
                <path d="M69.9120879,88.6210207 L63.5964517,88.6210207 C59.9155303,88.6210207 56.8997749,85.754148 56.7144181,82.1604808 C56.7141533,82.1581253 56.7144181,82.1557698 56.7141533,82.1534144 C56.7085926,82.0395665 56.7054151,81.9254569 56.7054151,81.8103004 L56.7054151,74.4436884 C63.3626374,70.4430477 68.1639084,63.7158159 69.5162187,55.8430388 C74.8870647,55.1468655 79.0480604,50.5971379 79.0480604,45.1015568 C79.0480604,39.7389292 75.0861909,35.2763541 69.9038793,34.4166063 L69.9038793,27.0656974 C69.9036145,12.1414182 57.6197537,0 42.5203231,0 L39.4518734,0 C38.3407917,0 37.4402224,0.890107207 37.4402224,1.98828123 C37.4402224,3.08645525 38.3407917,3.97656245 39.4518734,3.97656245 L42.5203231,3.97656245 C55.4010327,3.97656245 65.8805773,14.3341022 65.8805773,27.0654357 L65.8805773,31.5235616 C60.8076261,31.4421669 56.7054151,27.3405026 56.7054151,22.3073795 C56.7054151,22.3063326 56.7051503,22.3052858 56.7051503,22.3052858 C56.7062095,21.7938863 56.5102608,21.2830103 56.1162452,20.8935721 C55.3303323,20.1173127 54.056931,20.1173127 53.2712829,20.8935721 C46.4978154,27.5891359 35.4751754,27.5893976 28.7009135,20.8935721 C27.9152655,20.1173127 26.6415994,20.1173127 25.8562161,20.8935721 C25.070568,21.6703548 25.070568,22.9289628 25.8562161,23.7054838 C29.8975242,27.6995814 35.2710181,29.8998553 40.986363,29.8998553 C45.4359857,29.8998553 49.675096,28.5608995 53.2429498,26.0855588 C54.3405269,29.7090619 56.9731233,32.6814076 60.3924269,34.2642857 L60.1302794,34.2642857 L45.1651,34.2642857 L37.4028863,34.2642857 L21.6276976,34.2642857 C21.5180723,34.2642857 21.4113597,34.2755396 21.3062359,34.2917662 C21.2013769,34.2750162 21.0946644,34.2642857 20.9847743,34.2642857 L16.0913544,34.2642857 L16.0913544,27.0654357 C16.0913544,19.0576114 20.230372,11.7263315 27.1635112,7.45454972 C28.1064478,6.87379468 28.3940156,5.64763994 27.8064345,4.71539593 C27.2188534,3.78367536 25.978022,3.4989248 25.0348206,4.08020328 C16.9153979,9.08270524 12.0680524,17.675472 12.0680524,27.0654357 L12.0680524,34.3985477 C6.56295512,34.970666 2.25817556,39.5847765 2.25817556,45.1753617 C2.25817556,50.9038729 6.779293,55.6056594 12.4798093,55.9846289 C13.723024,62.996873 17.7063419,69.0878654 23.2948497,73.1377093 L23.2948497,81.8100387 C23.2948497,85.5654484 20.2036277,88.620759 16.4038131,88.620759 L10.0881769,88.620759 C4.52535416,88.620759 0,93.0940646 0,98.5920012 C0,99.6904369 0.900834106,100.580282 2.011651,100.580282 C3.12273269,100.580282 4.023302,99.6904369 4.023302,98.5920012 C4.023302,95.2862252 6.7440752,92.5973215 10.0881769,92.5973215 L16.4038131,92.5973215 C20.7096518,92.5973215 24.4398252,90.1196252 26.2147491,86.5319776 L36.7332186,99.2031156 L21.409771,99.2031156 C20.2986893,99.2031156 19.39812,100.092961 19.39812,101.191397 L19.39812,123.683812 C19.39812,124.782248 20.2986893,125.672093 21.409771,125.672093 L59.1396796,125.672093 C60.2510261,125.672093 61.1513306,124.781986 61.1513306,123.683812 L61.1513306,101.191397 C61.1513306,100.092961 60.2510261,99.2031156 59.1396796,99.2031156 L44.904806,99.2031156 L53.917119,86.786107 C55.7399709,90.2358286 59.3930888,92.5973215 63.5961869,92.5973215 L69.9118231,92.5973215 C73.2561896,92.5973215 75.976698,95.2864869 75.976698,98.5920012 L75.976698,132.011719 C75.976698,133.110155 76.8770025,134 77.988349,134 C79.0996955,134 80,133.109893 80,132.011719 L80,98.5920012 C80.0002648,93.0940646 75.4746458,88.6210207 69.9120879,88.6210207 Z M69.9036145,51.2998541 L69.9036145,38.4821533 C72.850523,39.2749009 75.0242288,41.9412968 75.0242288,45.1015568 C75.0242288,48.2639107 72.847875,50.9316151 69.8980538,51.722269 C69.9004369,51.5817257 69.9036145,51.4411825 69.9036145,51.2998541 Z M6.28174235,45.1751 C6.28174235,41.7808629 8.78882563,38.9563886 12.0680524,38.4112274 L12.0680524,51.2995924 C12.0680524,51.5136787 12.07123,51.7272417 12.0762611,51.9400194 C8.79279756,51.3985223 6.28174235,48.5719542 6.28174235,45.1751 Z M58.9283728,38.2411098 L58.9283728,43.7644331 C58.9283728,44.7071459 58.1519926,45.4742451 57.1984642,45.4742451 L48.9063948,45.4742451 C47.9526016,45.4742451 47.1764862,44.7068842 47.1764862,43.7644331 L47.1764862,38.2411098 L58.9283728,38.2411098 Z M23.6385542,38.2411098 L23.638819,38.2411098 L23.6390838,38.2411098 L35.3909705,38.2411098 L35.3909705,43.7644331 C35.3909705,44.7071459 34.614855,45.4742451 33.660797,45.4742451 L25.3687277,45.4742451 C24.4149345,45.4742451 23.6385542,44.7068842 23.6385542,43.7644331 L23.6385542,38.2411098 Z M57.1280286,103.17994 L57.1280286,121.695792 L23.421422,121.695792 L23.421422,103.17994 L57.1280286,103.17994 Z M52.6821131,81.6666165 L40.8793857,97.9282811 L27.3186813,81.59255 L27.3186813,75.5588741 C30.9778896,77.3540066 35.0973123,78.3655515 39.4518734,78.3655515 L42.5203231,78.3655515 C46.1090957,78.3655515 49.5384615,77.6782767 52.6821131,76.432493 L52.6821131,81.6666165 Z M42.5203231,74.3887273 L39.4518734,74.3887273 C26.570899,74.3887273 16.0916192,64.0309258 16.0916192,51.2998541 L16.0916192,38.2411098 L19.6157818,38.2411098 L19.6157818,43.7644331 C19.6157818,46.8998299 22.196743,49.4508075 25.3692572,49.4508075 L33.6613266,49.4508075 C36.8338409,49.4508075 39.4148021,46.8998299 39.4148021,43.7644331 L39.4148021,38.2411098 L43.1537138,38.2411098 L43.1537138,43.7644331 C43.1537138,46.8998299 45.734675,49.4508075 48.9069244,49.4508075 L57.198729,49.4508075 C60.3709784,49.4508075 62.9519396,46.8998299 62.9519396,43.7644331 L62.9519396,38.2411098 L65.880842,38.2411098 L65.880842,51.2998541 C65.8805773,64.0309258 55.4012975,74.3887273 42.5203231,74.3887273 Z" id="Shape" fill-rule="nonzero"></path>
            </g>
        </g>
    </g>
</svg>