<?xml version="1.0" encoding="UTF-8"?>
<svg width="354px" height="512px" viewBox="0 0 354 512" version="1.1" xmlns="http://www.w3.org/2000/svg" xmlns:xlink="http://www.w3.org/1999/xlink">
    <!-- Generator: Sketch 52.6 (67491) - http://www.bohemiancoding.com/sketch -->
    <title>robot-svgrepo-com (1)</title>
    <desc>Created with Sketch.</desc>
    <g id="Page-2" stroke="none" stroke-width="1" fill="none" fill-rule="evenodd">
        <g id="Desktop-Copy" transform="translate(-369.000000, -353.000000)" fill="#9013FE">
            <g id="robot-svgrepo-com-(1)" transform="translate(369.000000, 353.000000)">
                <path d="M345.464,226.038 L314.175,226.038 C309.538,226.038 305.781,229.796 305.781,234.432 L305.781,251.917 L291.51,251.917 L291.51,234.432 C291.51,229.796 287.753,226.038 283.116,226.038 L248.373,226.038 L248.373,208.687 L283.116,208.687 C287.753,208.687 291.51,204.929 291.51,200.293 L291.51,66.121 C291.51,45.836 275.008,29.334 254.723,29.334 L185.394,29.334 L185.394,8.394 C185.394,3.758 181.637,0 177,0 C172.363,0 168.606,3.758 168.606,8.394 L168.606,29.333 L99.276,29.333 C78.991,29.333 62.489,45.836 62.489,66.12 L62.489,200.293 C62.489,204.929 66.246,208.687 70.883,208.687 L105.627,208.687 L105.627,226.038 L70.883,226.038 C66.246,226.038 62.489,229.796 62.489,234.432 L62.489,251.917 L48.218,251.917 L48.218,234.432 C48.218,229.796 44.461,226.038 39.824,226.038 L8.534,226.038 C3.897,226.038 0.14,229.796 0.14,234.432 L0.14,403.528 C0.14,408.164 3.897,411.922 8.534,411.922 L39.823,411.922 C44.46,411.922 48.217,408.164 48.217,403.528 L48.217,303.215 L62.488,303.215 L62.488,371.418 C62.488,376.054 66.245,379.812 70.882,379.812 L85.782,379.812 L85.782,455.525 L75.196,455.525 C70.559,455.525 66.802,459.283 66.802,463.919 L66.802,503.605 C66.802,508.241 70.559,511.999 75.196,511.999 L145.94,511.999 C150.577,511.999 154.334,508.241 154.334,503.605 L154.334,463.919 C154.334,459.283 150.577,455.525 145.94,455.525 L135.355,455.525 L135.355,379.812 L218.644,379.812 L218.644,455.525 L208.058,455.525 C203.421,455.525 199.664,459.283 199.664,463.919 L199.664,503.605 C199.664,508.241 203.421,511.999 208.058,511.999 L278.802,511.999 C283.439,511.999 287.196,508.241 287.196,503.605 L287.196,463.919 C287.196,459.283 283.439,455.525 278.802,455.525 L268.217,455.525 L268.217,379.812 L283.117,379.812 C287.754,379.812 291.511,376.054 291.511,371.418 L291.511,303.215 L305.782,303.215 L305.782,403.527 C305.782,408.163 309.539,411.921 314.176,411.921 L345.465,411.921 C350.102,411.921 353.859,408.163 353.859,403.527 L353.859,234.431 C353.857,229.796 350.1,226.038 345.464,226.038 Z M31.43,395.134 L16.929,395.134 L16.929,242.826 L31.43,242.826 L31.43,395.134 Z M62.489,286.428 L48.218,286.428 L48.218,268.705 L62.489,268.705 L62.489,286.428 Z M79.276,191.9 L79.276,66.121 C79.276,55.093 88.248,46.121 99.276,46.121 L254.723,46.121 C265.751,46.121 274.723,55.093 274.723,66.121 L274.723,191.9 L79.276,191.9 Z M231.586,208.686 L231.586,226.037 L122.414,226.037 L122.414,208.686 L231.586,208.686 Z M137.547,472.314 L137.547,495.212 L83.59,495.212 L83.59,472.314 L137.547,472.314 Z M102.571,455.526 L102.571,379.813 L118.569,379.813 L118.569,455.526 L102.571,455.526 Z M270.409,472.314 L270.409,495.212 L216.452,495.212 L216.452,472.314 L270.409,472.314 Z M235.433,455.526 L235.433,379.813 L251.431,379.813 L251.431,455.526 L235.433,455.526 Z M274.723,363.024 L79.276,363.024 L79.276,242.826 L274.723,242.826 L274.723,363.024 Z M305.781,286.428 L291.51,286.428 L291.51,268.705 L305.781,268.705 L305.781,286.428 Z M337.07,395.134 L322.569,395.134 L322.569,242.826 L337.07,242.826 L337.07,395.134 Z" id="Shape" fill-rule="nonzero"></path>
                <path d="M125.236,84.744 C104.433,84.744 87.509,101.668 87.509,122.47 C87.509,143.272 104.433,160.196 125.236,160.196 C146.038,160.197 162.962,143.273 162.962,122.47 C162.963,101.668 146.039,84.744 125.236,84.744 Z M125.236,143.409 C113.691,143.409 104.296,134.017 104.296,122.47 C104.296,110.925 113.69,101.531 125.236,101.531 C136.781,101.531 146.175,110.924 146.175,122.47 C146.175,134.016 136.782,143.409 125.236,143.409 Z" id="Shape" fill-rule="nonzero"></path>
                <path d="M228.765,84.744 C207.962,84.744 191.038,101.668 191.038,122.47 C191.038,143.272 207.962,160.197 228.765,160.197 C249.567,160.197 266.491,143.273 266.491,122.471 C266.491,101.669 249.567,84.744 228.765,84.744 Z M228.765,143.409 C217.22,143.409 207.825,134.016 207.825,122.47 C207.825,110.925 217.218,101.531 228.765,101.531 C240.31,101.531 249.704,110.924 249.704,122.47 C249.703,134.016 240.31,143.409 228.765,143.409 Z" id="Shape" fill-rule="nonzero"></path>
                <path d="M177.001,270.9 C146.684,270.9 122.019,295.564 122.019,325.882 C122.019,330.518 125.776,334.276 130.413,334.276 L223.589,334.276 C228.226,334.276 231.983,330.518 231.983,325.882 C231.982,295.565 207.318,270.9 177.001,270.9 Z M139.735,317.488 C143.57,300.452 158.824,287.688 177,287.688 C195.177,287.688 210.43,300.452 214.265,317.488 L139.735,317.488 Z" id="Shape" fill-rule="nonzero"></path>
                <circle id="Oval" cx="247.744" cy="267.215" r="8.394"></circle>
                <circle id="Oval" cx="106.257" cy="267.215" r="8.394"></circle>
            </g>
        </g>
    </g>
</svg>