<?xml version="1.0" encoding="UTF-8"?>
<svg width="93px" height="134px" viewBox="0 0 93 134" version="1.1" xmlns="http://www.w3.org/2000/svg" xmlns:xlink="http://www.w3.org/1999/xlink">
    <!-- Generator: Sketch 52.6 (67491) - http://www.bohemiancoding.com/sketch -->
    <title>robot-svgrepo-com (1)</title>
    <desc>Created with Sketch.</desc>
    <g id="Page-2" stroke="none" stroke-width="1" fill="none" fill-rule="evenodd">
        <g id="Desktop-Copy" transform="translate(-679.000000, -378.000000)" fill="#9013FE">
            <g id="robot-svgrepo-com-(1)" transform="translate(679.000000, 378.000000)">
                <path d="M90.7927818,59.1584984 L82.5662602,59.1584984 C81.3470976,59.1584984 80.359305,60.1420393 80.359305,61.3553698 L80.359305,65.9315311 L76.6071656,65.9315311 L76.6071656,61.3553698 C76.6071656,60.1420393 75.619373,59.1584984 74.4002103,59.1584984 L65.2655611,59.1584984 L65.2655611,54.6174075 L74.4002103,54.6174075 C75.619373,54.6174075 76.6071656,53.6338665 76.6071656,52.420536 L76.6071656,17.3051393 C76.6071656,11.9961641 72.2684504,7.67727281 66.9351067,7.67727281 L48.7070867,7.67727281 L48.7070867,2.19687148 C48.7070867,0.983540983 47.7192941,0 46.5001315,0 C45.2809688,0 44.2931762,0.983540983 44.2931762,2.19687148 L44.2931762,7.67701109 L26.0648933,7.67701109 C20.7315496,7.67701109 16.3928344,11.9961641 16.3928344,17.3048775 L16.3928344,52.420536 C16.3928344,53.6338665 17.380627,54.6174075 18.5997897,54.6174075 L27.7347018,54.6174075 L27.7347018,59.1584984 L18.5997897,59.1584984 C17.380627,59.1584984 16.3928344,60.1420393 16.3928344,61.3553698 L16.3928344,65.9315311 L12.640695,65.9315311 L12.640695,61.3553698 C12.640695,60.1420393 11.6529024,59.1584984 10.4337398,59.1584984 L2.20695524,59.1584984 C0.98779257,59.1584984 0,60.1420393 0,61.3553698 L0,105.61105 C0,106.824381 0.98779257,107.807921 2.20695524,107.807921 L10.4334769,107.807921 C11.6526395,107.807921 12.6404321,106.824381 12.6404321,105.61105 L12.6404321,79.3572058 L16.3925715,79.3572058 L16.3925715,97.2072445 C16.3925715,98.420575 17.3803641,99.404116 18.5995267,99.404116 L22.5170432,99.404116 L22.5170432,119.219666 L19.7337661,119.219666 C18.5146034,119.219666 17.5268108,120.203207 17.5268108,121.416538 L17.5268108,131.803129 C17.5268108,133.016459 18.5146034,134 19.7337661,134 L38.3338187,134 C39.5529813,134 40.5407739,133.016459 40.5407739,131.803129 L40.5407739,121.416538 C40.5407739,120.203207 39.5529813,119.219666 38.3338187,119.219666 L35.5508045,119.219666 L35.5508045,99.404116 L57.4491955,99.404116 L57.4491955,119.219666 L54.6659184,119.219666 C53.4467558,119.219666 52.4589632,120.203207 52.4589632,121.416538 L52.4589632,131.803129 C52.4589632,133.016459 53.4467558,134 54.6659184,134 L73.265971,134 C74.4851337,134 75.4729262,133.016459 75.4729262,131.803129 L75.4729262,121.416538 C75.4729262,120.203207 74.4851337,119.219666 73.265971,119.219666 L70.4829568,119.219666 L70.4829568,99.404116 L74.4004733,99.404116 C75.6196359,99.404116 76.6074285,98.420575 76.6074285,97.2072445 L76.6074285,79.3572058 L80.3595679,79.3572058 L80.3595679,105.610788 C80.3595679,106.824119 81.3473605,107.80766 82.5665231,107.80766 L90.7930448,107.80766 C92.0122074,107.80766 93,106.824119 93,105.610788 L93,61.3551081 C92.9994742,60.1420393 92.0116816,59.1584984 90.7927818,59.1584984 Z M8.22678454,103.414179 L4.4141734,103.414179 L4.4141734,63.5522413 L8.22678454,63.5522413 L8.22678454,103.414179 Z M16.3928344,74.9637245 L12.640695,74.9637245 L12.640695,70.3252741 L16.3928344,70.3252741 L16.3928344,74.9637245 Z M20.806482,50.2239262 L20.806482,17.3051393 C20.806482,14.4188993 23.1654053,12.070754 26.0648933,12.070754 L66.9351067,12.070754 C69.8345947,12.070754 72.193518,14.4188993 72.193518,17.3051393 L72.193518,50.2239262 L20.806482,50.2239262 Z M60.8519135,54.6171457 L60.8519135,59.1582366 L32.1483494,59.1582366 L32.1483494,54.6171457 L60.8519135,54.6171457 Z M36.1271263,123.613671 L36.1271263,129.606519 L21.9407213,129.606519 L21.9407213,123.613671 L36.1271263,123.613671 Z M26.9312166,119.219928 L26.9312166,99.4043777 L31.1374198,99.4043777 L31.1374198,119.219928 L26.9312166,119.219928 Z M71.0592787,123.613671 L71.0592787,129.606519 L56.8728737,129.606519 L56.8728737,123.613671 L71.0592787,123.613671 Z M61.8633689,119.219928 L61.8633689,99.4043777 L66.0695722,99.4043777 L66.0695722,119.219928 L61.8633689,119.219928 Z M72.193518,95.0103731 L20.806482,95.0103731 L20.806482,63.5522413 L72.193518,63.5522413 L72.193518,95.0103731 Z M80.359305,74.9637245 L76.6071656,74.9637245 L76.6071656,70.3252741 L80.359305,70.3252741 L80.359305,74.9637245 Z M88.5858266,103.414179 L84.7732155,103.414179 L84.7732155,63.5522413 L88.5858266,63.5522413 L88.5858266,103.414179 Z" id="Shape" fill-rule="nonzero"></path>
                <path d="M32.5001259,23 C27.2616728,23 23,27.2617293 23,32.5 C23,37.7382707 27.2616728,42 32.5001259,42 C37.7383272,42.0002518 42,37.7385225 42,32.5 C42.0002518,27.2617293 37.738579,23 32.5001259,23 Z M32.5001259,37.7727694 C29.5929519,37.7727694 27.2271745,35.4077162 27.2271745,32.5 C27.2271745,29.5927875 29.5927001,27.2272306 32.5001259,27.2272306 C35.4072999,27.2272306 37.7728255,29.5925357 37.7728255,32.5 C37.7728255,35.4074643 35.4075517,37.7727694 32.5001259,37.7727694 Z" id="Shape" fill-rule="nonzero"></path>
                <path d="M60.5001259,23 C55.2616728,23 51,27.2616728 51,32.4998741 C51,37.7380754 55.2616728,42 60.5001259,42 C65.7383272,42 70,37.7383272 70,32.5001259 C70,27.2619246 65.7383272,23 60.5001259,23 Z M60.5001259,37.7725737 C57.5929519,37.7725737 55.2271745,35.4072999 55.2271745,32.4998741 C55.2271745,29.5927001 57.5924483,27.2271745 60.5001259,27.2271745 C63.4072999,27.2271745 65.7728255,29.5924483 65.7728255,32.4998741 C65.7725737,35.4072999 63.4072999,37.7725737 60.5001259,37.7725737 Z" id="Shape" fill-rule="nonzero"></path>
                <path d="M46.5,71 C38.5047197,71 32,77.6158798 32,85.7483906 C32,86.9919528 32.9908061,88 34.2136881,88 L58.7863119,88 C60.0091939,88 61,86.9919528 61,85.7483906 C60.9997363,77.6161481 54.4952803,71 46.5,71 Z M36.6721109,83.4967811 C37.6834873,78.9270386 41.706313,75.5032189 46.4997363,75.5032189 C51.2934233,75.5032189 55.3159852,78.9270386 56.3273617,83.4967811 L36.6721109,83.4967811 Z" id="Shape" fill-rule="nonzero"></path>
                <circle id="Oval" cx="65" cy="70" r="2"></circle>
                <circle id="Oval" cx="28" cy="70" r="2"></circle>
            </g>
        </g>
    </g>
</svg>