<?xml version="1.0" encoding="UTF-8"?>
<svg width="305px" height="264px" viewBox="0 0 305 264" version="1.1" xmlns="http://www.w3.org/2000/svg" xmlns:xlink="http://www.w3.org/1999/xlink">
    <!-- Generator: Sketch 52.6 (67491) - http://www.bohemiancoding.com/sketch -->
    <title>rock big</title>
    <desc>Created with Sketch.</desc>
    <defs>
        <filter x="-14.9%" y="-12.4%" width="129.7%" height="124.7%" filterUnits="objectBoundingBox" id="filter-1">
            <feOffset dx="2" dy="5" in="SourceAlpha" result="shadowOffsetOuter1"></feOffset>
            <feGaussianBlur stdDeviation="5" in="shadowOffsetOuter1" result="shadowBlurOuter1"></feGaussianBlur>
            <feColorMatrix values="0 0 0 0 0.290221632   0 0 0 0 0.290175289   0 0 0 0 0.290237457  0 0 0 1 0" type="matrix" in="shadowBlurOuter1" result="shadowMatrixOuter1"></feColorMatrix>
            <feMerge>
                <feMergeNode in="shadowMatrixOuter1"></feMergeNode>
                <feMergeNode in="SourceGraphic"></feMergeNode>
            </feMerge>
        </filter>
    </defs>
    <g id="Page-2" stroke="none" stroke-width="1" fill="none" fill-rule="evenodd">
        <g id="Desktop-Copy-2" transform="translate(-386.000000, -423.000000)">
            <g id="rock-big" filter="url(#filter-1)" transform="translate(540.121591, 546.643117) rotate(99.119230) translate(-540.121591, -546.643117) translate(424.121591, 407.143117)">
                <path d="M174.269347,240.076348 C183.905174,255.614589 173.018008,265.548874 158.343215,272.935907 C137.582364,283.379643 86.2154172,278.285138 68.6294512,267.841402 C52.48873,258.161842 45.3271414,244.151952 53.010983,231.670414" id="path32292" stroke="#9013FE" stroke-width="10" fill="#FFFFFF" stroke-linecap="round" stroke-linejoin="round"></path>
                <path d="M0.517036327,126.171737 C-1.67663116,166.547088 36.0790227,229.810377 80.7996349,244.726112 C103.893297,252.183979 155.865554,254.49849 174.213522,240.868594 C205.641584,217.723489 221.511757,187.634851 228.704529,150.602682 C231.238638,137.487122 231.878564,122.571387 231.136249,110.227331 C228.514343,59.7838585 212.659528,22.2579271 178.390961,28.1136388 C167.925094,-13.2235201 104.400118,-3.31741479 104.095513,28.2679395 C71.676845,-8.35790449 24.5193934,25.8073062 43.9066017,69.5690949 C36.7240685,75.2525042 2.80797261,84.2533787 0.517036327,126.171737 Z" id="path32294" stroke="#9013FE" stroke-width="10" fill="#FFFFFF" stroke-linecap="round" stroke-linejoin="round"></path>
                <path d="M108.88488,29.6502242 C118.94572,60.9227894 114.915546,73.936228 115.241493,82.565662 C109.430259,62.7154441 108.495177,57.5345082 100.728515,36.9014684 C99.4032175,33.392753 97.6623565,29.8419614 93.7707039,25.9213008 L109.434612,23.6514699 C109.542612,22.893667 108.519194,27.3418443 108.884829,29.6489896 L108.88488,29.6502242 Z" id="path32296" fill="#9013FE"></path>
                <path d="M181.217486,25.3263234 C184.925568,44.4820015 187.40163,68.4713554 183.550082,84.3253004 C181.659561,73.7607777 175.031183,46.7863094 172.4906,30.8198343 C172.459076,30.8249493 172.521168,30.8495013 181.217535,25.3253004 L181.217486,25.3263234 Z" id="path32298" fill="#9013FE"></path>
                <path d="M149.434276,220.292343 C159.533987,195.763608 159.383843,188.683148 162.434276,176.292343" id="path32300" stroke="#9013FE" stroke-width="10" stroke-linecap="round" stroke-linejoin="round"></path>
                <path d="M124.959229,223.796156 C128.607935,193.776075 128.030349,178.896557 128.959229,158.796156" id="path32302" stroke="#9013FE" stroke-width="10" stroke-linecap="round" stroke-linejoin="round"></path>
                <path d="M96.3096106,223.950472 C96.4949827,203.474281 95.178462,193.748091 94.3272632,180.950472" id="path32304" stroke="#9013FE" stroke-width="10" stroke-linecap="round" stroke-linejoin="round"></path>
                <path d="M36.2918155,65.9944448 C46.3302737,109.155047 33.194131,126.131208 24.4607755,147.994445 C37.7310395,125.359564 55.7729241,117.643127 47.2639638,67.2033532 L36.2918155,65.9944448 Z" id="path32306" fill="#9013FE"></path>
            </g>
        </g>
    </g>
</svg>