<?xml version="1.0" encoding="UTF-8"?>
<svg width="361px" height="261px" viewBox="0 0 361 261" version="1.1" xmlns="http://www.w3.org/2000/svg" xmlns:xlink="http://www.w3.org/1999/xlink">
    <!-- Generator: Sketch 52.6 (67491) - http://www.bohemiancoding.com/sketch -->
    <title>scissors big</title>
    <desc>Created with Sketch.</desc>
    <defs>
        <filter x="-16.7%" y="-10.1%" width="133.3%" height="120.3%" filterUnits="objectBoundingBox" id="filter-1">
            <feOffset dx="2" dy="5" in="SourceAlpha" result="shadowOffsetOuter1"></feOffset>
            <feGaussianBlur stdDeviation="5" in="shadowOffsetOuter1" result="shadowBlurOuter1"></feGaussianBlur>
            <feColorMatrix values="0 0 0 0 0.290221632   0 0 0 0 0.290175289   0 0 0 0 0.290237457  0 0 0 1 0" type="matrix" in="shadowBlurOuter1" result="shadowMatrixOuter1"></feColorMatrix>
            <feMerge>
                <feMergeNode in="shadowMatrixOuter1"></feMergeNode>
                <feMergeNode in="SourceGraphic"></feMergeNode>
            </feMerge>
        </filter>
    </defs>
    <g id="Page-2" stroke="none" stroke-width="1" fill="none" fill-rule="evenodd">
        <g id="Desktop-Copy-2" transform="translate(-881.000000, -445.000000)">
            <g id="scissors-big" filter="url(#filter-1)" transform="translate(1060.540045, 570.193909) rotate(112.264648) translate(-1060.540045, -570.193909) translate(957.040045, 400.193909)">
                <path d="M156.093553,303.468153 C164.524902,318.014592 154.998632,327.314774 142.158188,334.230294 C123.992443,344.007408 79.0463648,339.238084 63.6586446,329.460969 C49.5355135,320.399254 43.2691235,307.283612 49.9924849,295.598768" id="imagebot_18" stroke="#9013FE" stroke-width="10" fill="#FFFFFF" stroke-linecap="round" stroke-linejoin="round"></path>
                <path d="M0.365290278,202.477857 C-1.59096731,238.176395 32.0785769,294.111683 71.9592959,307.299678 C92.5536436,313.893675 138.901198,315.940088 155.263455,303.88899 C183.290212,283.42486 197.442834,256.821491 203.857167,224.078883 C206.117021,212.482543 206.687692,199.294548 206.025714,188.380345 C203.082882,148.443459 172.178121,124.973375 158.98879,115.77816 C158.573342,89.7432388 161.21897,58.3649062 165.41682,28.8738212 C171.696475,-15.2377478 109.854083,-4.11890383 104.396192,37.2641145 C101.841872,56.6368242 97.4203194,72.5306317 92.7339753,115.914587 C85.5549437,92.5400032 73.4886922,58.9788301 69.4392161,35.7861495 C62.7623743,-2.48177343 7.67671739,20.46079 16.8279854,67.0735304 C23.0619871,98.8156697 32.9665398,122.190254 39.0590152,152.43169 C32.6538125,157.456771 2.40828974,165.415044 0.365290278,202.477857 Z" id="imagebot_17" stroke="#9013FE" stroke-width="10" fill="#FFFFFF" stroke-linecap="round" stroke-linejoin="round"></path>
                <path d="M86.8678456,115.13459 C93.8387714,143.883118 104.062184,157.05385 107.867846,163.866297 C103.00174,145.881436 101.284831,141.453345 97.5526199,121.969745 C96.9214033,118.654354 96.7354814,114.703135 97.2863613,109.866297 L86.8678456,115.13459 Z" id="imagebot_16" fill="#9013FE"></path>
                <path d="M155.85798,113.591411 C156.13678,130.774336 160.528992,151.398344 166.857316,164.263046 C166.180031,145.658257 165.627165,130.970005 164.575358,113.263046 C164.528891,113.263046 160.236251,113.600407 155.857316,113.600407 L155.85798,113.591411 Z" id="imagebot_15" fill="#9013FE"></path>
                <path d="M134.39331,282.670829 C142.93922,260.92945 142.812174,254.653588 145.39331,243.670829" id="imagebot_14" stroke="#9013FE" stroke-width="10" stroke-linecap="round" stroke-linejoin="round"></path>
                <path d="M110.971386,285.199206 C115.532269,258.873904 114.810287,245.825712 115.971386,228.199206" id="imagebot_13" stroke="#9013FE" stroke-width="10" stroke-linecap="round" stroke-linejoin="round"></path>
                <path d="M85.5755368,286.481926 C85.760909,268.862878 84.4443883,260.493831 83.5931895,249.481926" id="imagebot_12" stroke="#9013FE" stroke-width="10" stroke-linecap="round" stroke-linejoin="round"></path>
                <path d="M34.5126269,147.481005 C42.9449318,185.904468 31.9105719,201.017392 24.5745533,220.481005 C35.7215751,200.330441 50.8767581,193.46093 43.7292315,148.557229 L34.5126269,147.481005 Z" id="imagebot_11" fill="#9013FE"></path>
            </g>
        </g>
    </g>
</svg>