<?xml version="1.0" encoding="UTF-8"?>
<svg width="148px" height="111px" viewBox="0 0 148 111" version="1.1" xmlns="http://www.w3.org/2000/svg" xmlns:xlink="http://www.w3.org/1999/xlink">
    <!-- Generator: Sketch 52.6 (67491) - http://www.bohemiancoding.com/sketch -->
    <title>scissors</title>
    <desc>Created with Sketch.</desc>
    <defs>
        <filter x="-40.4%" y="-24.8%" width="182.1%" height="150.4%" filterUnits="objectBoundingBox" id="filter-1">
            <feOffset dx="2" dy="5" in="SourceAlpha" result="shadowOffsetOuter1"></feOffset>
            <feGaussianBlur stdDeviation="5" in="shadowOffsetOuter1" result="shadowBlurOuter1"></feGaussianBlur>
            <feColorMatrix values="0 0 0 0 0.290221632   0 0 0 0 0.290175289   0 0 0 0 0.290237457  0 0 0 1 0" type="matrix" in="shadowBlurOuter1" result="shadowMatrixOuter1"></feColorMatrix>
            <feMerge>
                <feMergeNode in="shadowMatrixOuter1"></feMergeNode>
                <feMergeNode in="SourceGraphic"></feMergeNode>
            </feMerge>
        </filter>
    </defs>
    <g id="Page-2" stroke="none" stroke-width="1" fill="none" fill-rule="evenodd">
        <g id="Desktop-Copy-2" transform="translate(-152.000000, -719.000000)">
            <g id="scissors" filter="url(#filter-1)" transform="translate(224.542197, 769.151515) rotate(112.264648) translate(-224.542197, -769.151515) translate(185.542197, 705.651515)">
                <path d="M58.8504537,113.503638 C62.0122095,118.793252 58.4398581,122.175137 53.6246916,124.689871 C46.8125375,128.245185 29.9577581,126.510886 24.187363,122.955571 C18.8911888,119.660402 16.5412926,114.891078 19.0625531,110.642044" id="imagebot_18" stroke="#9013FE" stroke-width="5" fill="#FFFFFF" stroke-linecap="round" stroke-linejoin="round"></path>
                <path d="M0.835019019,75.6243243 C0.103796524,88.8968575 12.6890145,109.693311 27.5958852,114.59654 C35.2937724,117.048154 52.6178582,117.809 58.7338475,113.328463 C69.2098683,105.720005 74.499926,95.8290087 76.8975167,83.655475 C77.7422195,79.3440151 77.9555282,74.4407863 77.7080901,70.3829417 C76.6080993,55.5346121 65.0563198,46.8085555 60.1263273,43.3898215 C59.9710385,33.7101714 60.959938,22.0438683 62.5290373,11.0792341 C64.8762871,-5.32122103 41.7604414,-1.18729187 39.7203562,14.1987021 C38.7655861,21.4013762 37.1128697,27.3106124 35.361178,43.4405445 C32.6777536,34.7499941 28.1675527,22.272122 26.6539136,13.6492023 C24.1582009,-0.578615188 3.5679311,7.95131225 6.98855068,25.2816901 C9.31873578,37.0832547 13.0209229,45.7738052 15.2982075,57.0174161 C12.9040297,58.8857154 1.59866445,61.8445604 0.835019019,75.6243243 Z" id="imagebot_17" stroke="#9013FE" stroke-width="5" fill="#FFFFFF" stroke-linecap="round" stroke-linejoin="round"></path>
                <path d="M33.3884777,43.1970666 C36.0440685,53.8446696 39.9387017,58.7227184 41.3884777,61.245847 C39.5347232,54.5847873 38.8806626,52.9447537 37.4588679,45.7286057 C37.2184044,44.500683 37.147577,43.0372684 37.357436,41.245847 L33.3884777,43.1970666 Z" id="imagebot_16" fill="#9013FE"></path>
                <path d="M59.0746102,42.9765832 C59.1759922,49.378065 60.7731599,57.0615188 63.0743688,61.8542512 C62.8280832,54.9230553 62.6270412,49.4509614 62.2445658,42.8542512 C62.2276688,42.8542512 60.6667089,42.9799348 59.0743688,42.9799348 L59.0746102,42.9765832 Z" id="imagebot_15" fill="#9013FE"></path>
                <path d="M51.0936864,106.344129 C54.2012899,97.9820598 54.1550916,95.5682667 55.0936864,91.3441287" id="imagebot_14" stroke="#9013FE" stroke-width="5" stroke-linecap="round" stroke-linejoin="round"></path>
                <path d="M42.4168257,106.822549 C44.2411791,97.1237534 43.952386,92.3165245 44.4168257,85.8225486" id="imagebot_13" stroke="#9013FE" stroke-width="5" stroke-linecap="round" stroke-linejoin="round"></path>
                <path d="M33.0759546,107.217007 C33.1686407,100.55034 32.5103803,97.3836736 32.0847809,93.2170069" id="imagebot_12" stroke="#9013FE" stroke-width="5" stroke-linecap="round" stroke-linejoin="round"></path>
                <path d="M13.8303478,55.9476255 C17.0426544,70.1590433 12.8390888,75.7487547 10.044415,82.9476255 C14.2908995,75.4946769 20.0643026,72.953899 17.3414353,56.3456807 L13.8303478,55.9476255 Z" id="imagebot_11" fill="#9013FE"></path>
            </g>
        </g>
    </g>
</svg>