<?xml version="1.0" encoding="UTF-8"?>
<svg width="148px" height="131px" viewBox="0 0 148 131" version="1.1" xmlns="http://www.w3.org/2000/svg" xmlns:xlink="http://www.w3.org/1999/xlink">
    <!-- Generator: Sketch 52.6 (67491) - http://www.bohemiancoding.com/sketch -->
    <title>rock</title>
    <desc>Created with Sketch.</desc>
    <defs>
        <filter x="-30.0%" y="-25.8%" width="161.0%" height="150.8%" filterUnits="objectBoundingBox" id="filter-1">
            <feOffset dx="2" dy="5" in="SourceAlpha" result="shadowOffsetOuter1"></feOffset>
            <feGaussianBlur stdDeviation="5" in="shadowOffsetOuter1" result="shadowBlurOuter1"></feGaussianBlur>
            <feColorMatrix values="0 0 0 0 0.290221632   0 0 0 0 0.290175289   0 0 0 0 0.290237457  0 0 0 1 0" type="matrix" in="shadowBlurOuter1" result="shadowMatrixOuter1"></feColorMatrix>
            <feMerge>
                <feMergeNode in="shadowMatrixOuter1"></feMergeNode>
                <feMergeNode in="SourceGraphic"></feMergeNode>
            </feMerge>
        </filter>
    </defs>
    <g id="Page-2" stroke="none" stroke-width="1" fill="none" fill-rule="evenodd">
        <g id="Desktop-Copy-2" transform="translate(-150.000000, -320.000000)">
            <g id="rock" filter="url(#filter-1)" transform="translate(223.524419, 378.821271) rotate(99.119230) translate(-223.524419, -378.821271) translate(171.024419, 315.821271)">
                <path d="M79.1951572,107.912885 C83.4861114,114.855504 78.6379203,119.294227 72.1030515,122.594816 C62.8579851,127.261166 39.9836416,124.984898 32.1523912,120.318548 C24.9647262,115.993638 21.7755813,109.7339 25.1972921,104.157043" id="path32292" stroke="#9013FE" stroke-width="5" fill="#FFFFFF" stroke-linecap="round" stroke-linejoin="round"></path>
                <path d="M0.627623487,56.5823622 C-0.3600017,74.6705195 16.6382148,103.012473 36.77217,109.694722 C47.1693164,113.035847 70.5680816,114.072748 78.8286386,107.966554 C92.9780693,97.5975469 100.123082,84.1178373 103.361387,67.5274255 C104.502284,61.6516547 104.790389,54.9694055 104.456187,49.4392682 C103.275762,26.8405927 96.1376632,10.0289754 80.7093905,12.6523342 C75.9974848,-5.86671294 47.3974959,-1.42877778 47.2603577,12.721461 C32.66494,-3.68691717 11.4338795,11.6190972 20.1623196,31.2243786 C16.928625,33.7705459 1.65904069,37.8029377 0.627623487,56.5823622 Z" id="path32294" stroke="#9013FE" stroke-width="5" fill="#FFFFFF" stroke-linecap="round" stroke-linejoin="round"></path>
                <path d="M49.7202451,13.0004682 C54.2933541,27.3116421 52.4614569,33.2669445 52.6096148,37.2160076 C49.9681448,28.1320095 49.5431074,25.7610728 46.0128064,16.3188342 C45.4103985,14.7131509 44.6190981,13.0882124 42.8501651,11.2940118 L49.9701233,10.2552756 C50.0192144,9.90848444 49.5540243,11.944091 49.7202218,12.9999032 L49.7202451,13.0004682 Z" id="path32296" fill="#9013FE"></path>
                <path d="M82.4131633,10.9104875 C84.1245859,19.6766453 85.2673837,30.6548242 83.489746,37.9100194 C82.6171979,33.0754073 79.5579465,20.7311591 78.38537,13.4244671 C78.3708204,13.4268078 78.3994781,13.4380435 82.4131859,10.9100194 L82.4131633,10.9104875 Z" id="path32298" fill="#9013FE"></path>
                <path d="M67.9694568,98.8754148 C72.630862,87.7259895 72.5615646,84.5075987 73.9694568,78.8754148" id="path32300" stroke="#9013FE" stroke-width="5" stroke-linecap="round" stroke-linejoin="round"></path>
                <path d="M56.8350012,100.41973 C58.6593546,87.0261554 58.3705615,80.3876012 58.8350012,71.4197297" id="path32302" stroke="#9013FE" stroke-width="5" stroke-linecap="round" stroke-linejoin="round"></path>
                <path d="M43.9119885,100.265473 C44.0046745,91.2178543 43.3464142,86.9202352 42.9208148,81.2654733" id="path32304" stroke="#9013FE" stroke-width="5" stroke-linecap="round" stroke-linejoin="round"></path>
                <path d="M17.0761045,29.8581823 C21.4930261,49.3330882 15.7131233,56.9930631 11.8704469,66.8581823 C17.709363,56.6448824 25.6477922,53.1630757 21.9038497,30.4036654 L17.0761045,29.8581823 Z" id="path32306" fill="#9013FE"></path>
            </g>
        </g>
    </g>
</svg>